<svg width="40px" height="40px" viewBox="0 0 100 100" fill="none" xmlns="http://www.w3.org/2000/svg">
  <g transform="translate(5, 15)">
    <rect x="0" y="0" width="25" height="4" rx="1" fill="#64B5F6"/>
    <rect x="27" y="0" width="15" height="4" rx="1" fill="#BBDEFB"/>
    <rect x="44" y="0" width="50" height="4" rx="1" fill="#1976D2"/>
  </g>
  <g transform="translate(5, 35)">
    <rect x="0" y="0" width="50" height="4" rx="1" fill="#1976D2"/>
    <rect x="52" y="0" width="25" height="4" rx="1" fill="#64B5F6"/>
    <rect x="79" y="0" width="15" height="4" rx="1" fill="#BBDEFB"/>
  </g>
  <g transform="translate(5, 55)">
    <rect x="0" y="0" width="15" height="4" rx="1" fill="#BBDEFB"/>
    <rect x="17" y="0" width="25" height="4" rx="1" fill="#64B5F6"/>
    <rect x="44" y="0" width="50" height="4" rx="1" fill="#1976D2"/>
  </g>
  <g transform="translate(5, 75)">
    <rect x="0" y="0" width="25" height="4" rx="1" fill="#64B5F6"/>
    <rect x="27" y="0" width="50" height="4" rx="1" fill="#1976D2"/>
    <rect x="79" y="0" width="15" height="4" rx="1" fill="#BBDEFB"/>
  </g>
</svg>
